# xmcd
#
# Track frame offsets:
#	150
#	16287
#	33757
#	54215
#	71140
#	87682
#	105125
#	123655
#	143787
#	166390
#	186682
#	203140
#	221995
#	237435
#	251700
#
# Disc length: 3541 seconds
#
# Revision: 1
# Processed by: cddbd v1.5.1PL0 Copyright (c) Steve Scherf et al.
# Submitted via: audiograbber 1.83.01
#
DISCID=df0dd30f
DTITLE=Music Maestro - Country Hits Of The 90's Vol. 3 - MM6017
DYEAR=1900
DGENRE=Karaoke
TTITLE0=Brooks and Dunn - Boot Scootin' Boogie
TTITLE1=Morgan, Lorrie - Picture Of Me Without You, A
TTITLE2=Brooks, Garth - We Shall Be Free
TTITLE3=Tillis, Pam - Shake The Sugar Tree
TTITLE4=Ketchum, Hal - Sure Love
TTITLE5=McEntire, Reba - For My Broken Heart
TTITLE6=Dean, Billy - Only The Wind
TTITLE7=Yearwood, Trisha - She's In Love With The Boy
TTITLE8=McEntire, Reba - Fancy
TTITLE9=Cyrus, Billy Ray - Some Gave All
TTITLE10=Loveless, Patty - Jealous Bone
TTITLE11=Judd, Wynonna - I Saw The Light
TTITLE12=Raye, Collin - In This Life
TTITLE13=Diffie, Joe - Next Thing Smokin'
TTITLE14=Yearwood, Trisha - Wrong Side Of Memphis, The
EXTD=
EXTT0=
EXTT1=
EXTT2=
EXTT3=
EXTT4=
EXTT5=
EXTT6=
EXTT7=
EXTT8=
EXTT9=
EXTT10=
EXTT11=
EXTT12=
EXTT13=
EXTT14=
PLAYORDER=
